# File created by Blade
# Date/Time:  Thu Jan 22 18:06:27 2015
# Frame Rate: 120.000 fps
#------------------------------------------------------
:FULLY-SPECIFIED
:DEGREES
3710
root -4.531884 33.063212 -0.867111 8.007237 -3.605463 1.654351
RightUpLeg -2.313088 0.648586 2.026736
RightLeg 3.438736 -0.000000 -0.000000
RightFoot -13.193720 -2.648304 -1.463277
RightToeBase 2.776143 -0.000000 -0.000000
LeftUpLeg -1.208352 2.614234 -2.138773
LeftLeg 3.887227 -0.000000 -0.000000
LeftFoot -15.181480 4.423659 -11.905253
LeftToeBase 9.642536 -0.000000 -0.000000
Spine -9.718125 -3.151013 -2.731579
RightShoulder -19.908687 -22.501493 -8.376169
RightArm 17.623882 -4.441845 83.668017
RightForeArm -7.136381 -0.000000 16.198634
RightHand 9.008477 -0.000000 8.388188
RightHandThumb1 -24.326973 -0.000000 -32.862282
LeftShoulder -23.347071 6.941834 25.108965
LeftArm 4.235849 -42.023321 -51.152430
LeftForeArm 10.832024 -0.000000 62.866045
LeftHand -2.221199 -0.000000 33.214408
LeftHandThumb1 -26.253704 0.000000 33.147579
Head 5.161407 3.791849 1.442720
3711
root -4.551320 33.062592 -0.870324 8.025914 -3.665895 1.664207
RightUpLeg -2.305113 0.711383 2.038876
RightLeg 3.361564 -0.000000 -0.000000
RightFoot -13.161613 -2.630195 -1.499375
RightToeBase 2.826753 -0.000000 -0.000000
LeftUpLeg -1.243235 2.596893 -2.125769
LeftLeg 3.926409 -0.000000 -0.000000
LeftFoot -15.217047 4.491312 -11.989505
LeftToeBase 9.651543 -0.000000 -0.000000
Spine -9.739416 -3.125240 -2.694434
RightShoulder -19.853109 -22.447530 -8.467764
RightArm 17.581706 -4.243759 83.591367
RightForeArm -7.355338 -0.000000 16.477951
RightHand 9.027985 -0.000000 8.283753
RightHandThumb1 -24.326973 -0.000000 -32.862282
LeftShoulder -23.337934 6.955658 25.111212
LeftArm 4.295291 -42.047745 -51.187560
LeftForeArm 10.884339 -0.000000 62.689009
LeftHand -2.261981 -0.000000 33.082765
LeftHandThumb1 -26.253704 0.000000 33.147579
Head 5.204114 3.890052 1.408673
3712
root -4.574274 33.061372 -0.872296 8.041291 -3.725421 1.677759
RightUpLeg -2.288370 0.759276 2.056076
RightLeg 3.281079 -0.000000 -0.000000
RightFoot -13.126894 -2.608029 -1.548075
RightToeBase 2.801550 -0.000000 -0.000000
LeftUpLeg -1.273617 2.616550 -2.106746
LeftLeg 3.966318 -0.000000 -0.000000
LeftFoot -15.245298 4.524344 -12.005613
LeftToeBase 9.629029 -0.000000 -0.000000
Spine -9.765955 -3.082477 -2.685223
RightShoulder -19.822871 -22.438919 -8.524150
RightArm 17.565619 -4.105262 83.484385
RightForeArm -7.556999 -0.000000 16.787005
RightHand 8.964245 0.000000 8.001739
RightHandThumb1 -24.326973 -0.000000 -32.862282
LeftShoulder -23.287260 6.869970 25.167360
LeftArm 4.214199 -42.009067 -51.096340
LeftForeArm 10.854322 -0.000000 62.520141
LeftHand -2.348135 -0.000000 32.825894
LeftHandThumb1 -26.253704 0.000000 33.147579
Head 5.266430 3.953392 1.395280
3713
root -4.597211 33.060062 -0.875580 8.056600 -3.760595 1.688038
RightUpLeg -2.277761 0.750262 2.081819
RightLeg 3.212751 -0.000000 -0.000000
RightFoot -13.095918 -2.565458 -1.615991
RightToeBase 2.804485 -0.000000 -0.000000
LeftUpLeg -1.315319 2.636696 -2.080157
LeftLeg 4.022393 -0.000000 -0.000000
LeftFoot -15.271514 4.520571 -12.050562
LeftToeBase 9.624203 -0.000000 -0.000000
Spine -9.773277 -3.053658 -2.678034
RightShoulder -19.866376 -22.482633 -8.543722
RightArm 17.686581 -3.918310 83.377671
RightForeArm -7.564502 -0.000000 16.997519
RightHand 9.030058 -0.000000 7.886253
RightHandThumb1 -24.326973 -0.000000 -32.862282
LeftShoulder -23.278893 6.814594 25.212699
LeftArm 4.272154 -41.995117 -51.104687
LeftForeArm 10.885740 -0.000000 62.311240
LeftHand -2.405995 -0.000000 32.621682
LeftHandThumb1 -26.253704 0.000000 33.147579
Head 5.275995 4.038285 1.394557
3714
root -4.616466 33.059217 -0.878957 8.064530 -3.797650 1.702601
RightUpLeg -2.260817 0.715690 2.094410
RightLeg 3.143147 -0.000000 -0.000000
RightFoot -13.075302 -2.477823 -1.664185
RightToeBase 2.846717 -0.000000 -0.000000
LeftUpLeg -1.346757 2.649509 -2.069368
LeftLeg 4.071066 -0.000000 -0.000000
LeftFoot -15.302209 4.546428 -12.102397
LeftToeBase 9.636080 -0.000000 -0.000000
Spine -9.775874 -3.059621 -2.642963
RightShoulder -19.826470 -22.472481 -8.635854
RightArm 17.707176 -3.794747 83.249331
RightForeArm -7.545998 -0.000000 17.299995
RightHand 9.009412 -0.000000 7.689233
RightHandThumb1 -24.326973 -0.000000 -32.862282
LeftShoulder -23.315594 6.896744 25.154272
LeftArm 4.479818 -42.060004 -51.175436
LeftForeArm 10.883440 -0.000000 62.095717
LeftHand -2.473496 -0.000000 32.356275
LeftHandThumb1 -26.253704 0.000000 33.147579
Head 5.310297 4.128191 1.325984
3715
root -4.634728 33.058059 -0.882041 8.061492 -3.841822 1.720369
RightUpLeg -2.233389 0.717053 2.102216
RightLeg 3.076455 -0.000000 -0.000000
RightFoot -13.051993 -2.426832 -1.703826
RightToeBase 2.809994 -0.000000 -0.000000
LeftUpLeg -1.368333 2.681230 -2.060433
LeftLeg 4.121884 -0.000000 -0.000000
LeftFoot -15.319423 4.552334 -12.126827
LeftToeBase 9.591056 -0.000000 -0.000000
Spine -9.765072 -3.031412 -2.618409
RightShoulder -19.804712 -22.460376 -8.747293
RightArm 17.734953 -3.673553 83.152348
RightForeArm -7.592015 -0.000000 17.547173
RightHand 9.067467 -0.000000 7.361033
RightHandThumb1 -24.326973 -0.000000 -32.862282
LeftShoulder -23.317997 6.918641 25.133849
LeftArm 4.620945 -42.094997 -51.213351
LeftForeArm 10.864522 -0.000000 61.870555
LeftHand -2.552960 0.000000 32.121338
LeftHandThumb1 -26.253704 0.000000 33.147579
Head 5.334020 4.201321 1.257556
3716
root -4.650835 33.057057 -0.885849 8.048503 -3.885850 1.749680
RightUpLeg -2.193502 0.719440 2.091484
RightLeg 2.999457 -0.000000 -0.000000
RightFoot -13.045777 -2.370322 -1.746317
RightToeBase 2.910839 -0.000000 -0.000000
LeftUpLeg -1.355325 2.558575 -2.066356
LeftLeg 4.122490 -0.000000 -0.000000
LeftFoot -15.349083 4.688591 -12.232784
LeftToeBase 9.580996 -0.000000 -0.000000
Spine -9.740169 -2.988168 -2.619260
RightShoulder -19.803906 -22.412994 -8.829545
RightArm 17.726197 -3.448323 83.063598
RightForeArm -7.640624 -0.000000 17.846378
RightHand 9.118239 0.000000 7.130044
RightHandThumb1 -24.326973 -0.000000 -32.862282
LeftShoulder -23.278325 6.885157 25.148550
LeftArm 4.630194 -42.099883 -51.163117
LeftForeArm 10.788966 0.000000 61.688386
LeftHand -2.591949 -0.000000 31.788526
LeftHandThumb1 -26.253704 0.000000 33.147579
Head 5.349504 4.266935 1.197093
3717
root -4.672917 33.055324 -0.890061 8.023054 -3.942284 1.772258
RightUpLeg -2.143286 0.772355 2.098681
RightLeg 2.928483 -0.000000 -0.000000
RightFoot -13.034034 -2.356854 -1.789861
RightToeBase 2.918929 -0.000000 -0.000000
LeftUpLeg -1.354325 2.589257 -2.053896
LeftLeg 4.174734 -0.000000 -0.000000
LeftFoot -15.377607 4.693775 -12.276577
LeftToeBase 9.670766 -0.000000 -0.000000
Spine -9.694387 -2.949757 -2.633323
RightShoulder -19.781997 -22.392445 -8.911208
RightArm 17.743341 -3.282006 82.962771
RightForeArm -7.792051 -0.000000 18.147356
RightHand 9.189851 -0.000000 6.910814
RightHandThumb1 -24.326973 -0.000000 -32.862282
LeftShoulder -23.289727 6.891908 25.135704
LeftArm 4.749283 -42.101477 -51.120888
LeftForeArm 10.716675 0.000000 61.451137
LeftHand -2.655242 -0.000000 31.552150
LeftHandThumb1 -26.253704 0.000000 33.147579
Head 5.349381 4.373071 1.169647
3718
root -4.694773 33.053573 -0.894812 8.015297 -3.952353 1.776516
RightUpLeg -2.099273 0.795765 2.130075
RightLeg 2.841262 -0.000000 -0.000000
RightFoot -13.003300 -2.349769 -1.817645
RightToeBase 2.871216 -0.000000 -0.000000
LeftUpLeg -1.423266 2.726543 -2.026260
LeftLeg 4.320629 -0.000000 -0.000000
LeftFoot -15.423142 4.597332 -12.242389
LeftToeBase 9.589861 -0.000000 -0.000000
Spine -9.682538 -2.945644 -2.618548
RightShoulder -19.737900 -22.375686 -9.018844
RightArm 17.732494 -3.114305 82.877930
RightForeArm -7.758603 -0.000000 18.458189
RightHand 9.218727 -0.000000 6.703030
RightHandThumb1 -24.326973 -0.000000 -32.862282
LeftShoulder -23.251732 6.822368 25.182971
LeftArm 4.739709 -42.087442 -51.040144
LeftForeArm 10.675910 0.000000 61.226383
LeftHand -2.719280 -0.000000 31.281650
LeftHandThumb1 -26.253704 0.000000 33.147579
Head 5.399425 4.430896 1.129314
3719
root -4.715716 33.051682 -0.899204 8.006241 -3.974990 1.789142
RightUpLeg -2.059834 0.791519 2.149230
RightLeg 2.766949 -0.000000 -0.000000
RightFoot -12.985558 -2.311180 -1.874426
RightToeBase 2.918283 -0.000000 -0.000000
LeftUpLeg -1.452520 2.711218 -2.004222
LeftLeg 4.393865 -0.000000 -0.000000
LeftFoot -15.466496 4.614216 -12.305420
LeftToeBase 9.588380 -0.000000 -0.000000
Spine -9.663389 -2.943976 -2.623006
RightShoulder -19.701437 -22.423663 -9.086940
RightArm 17.824747 -3.011773 82.729205
RightForeArm -7.738113 -0.000000 18.715069
RightHand 9.344771 -0.000000 6.285965
RightHandThumb1 -24.326973 -0.000000 -32.862282
LeftShoulder -23.228292 6.721125 25.263609
LeftArm 4.663734 -42.014547 -50.905410
LeftForeArm 10.556195 -0.000000 61.003272
LeftHand -2.728939 -0.000000 30.966943
LeftHandThumb1 -26.253704 0.000000 33.147579
Head 5.438810 4.459913 1.090930
3720
root -4.735776 33.049626 -0.901871 7.976797 -3.975226 1.811916
RightUpLeg -1.978126 0.763900 2.166614
RightLeg 2.656008 -0.000000 -0.000000
RightFoot -12.959749 -2.298525 -1.929385
RightToeBase 2.953235 -0.000000 -0.000000
LeftUpLeg -1.458097 2.679191 -1.990022
LeftLeg 4.460837 -0.000000 -0.000000
LeftFoot -15.504776 4.631489 -12.341413
LeftToeBase 9.598512 -0.000000 -0.000000
Spine -9.626963 -2.939302 -2.634186
RightShoulder -19.673271 -22.388249 -9.193034
RightArm 17.809409 -2.764806 82.669623
RightForeArm -7.778176 -0.000000 19.018546
RightHand 9.356519 0.000000 6.201297
RightHandThumb1 -24.326973 -0.000000 -32.862282
LeftShoulder -23.221071 6.746716 25.257037
LeftArm 4.834343 -42.090618 -50.932463
LeftForeArm 10.508886 -0.000000 60.779094
LeftHand -2.781405 -0.000000 30.557504
LeftHandThumb1 -26.253704 0.000000 33.147579
Head 5.479091 4.504857 1.064433
3721
root -4.754977 33.048202 -0.904675 7.927660 -3.980370 1.827984
RightUpLeg -1.882879 0.750008 2.185465
RightLeg 2.555083 -0.000000 -0.000000
RightFoot -12.928475 -2.283871 -1.994921
RightToeBase 2.919024 -0.000000 -0.000000
LeftUpLeg -1.421581 2.537262 -1.964864
LeftLeg 4.484411 -0.000000 -0.000000
LeftFoot -15.539017 4.719550 -12.453765
LeftToeBase 9.590919 -0.000000 -0.000000
Spine -9.559914 -2.926175 -2.634149
RightShoulder -19.648755 -22.376702 -9.281941
RightArm 17.825861 -2.636086 82.538342
RightForeArm -7.869436 -0.000000 19.321356
RightHand 9.380036 -0.000000 5.884835
RightHandThumb1 -24.326973 -0.000000 -32.862282
LeftShoulder -23.233771 6.877241 25.162631
LeftArm 5.145943 -42.226756 -51.014643
LeftForeArm 10.454560 -0.000000 60.561782
LeftHand -2.825194 -0.000000 30.194813
LeftHandThumb1 -26.253704 0.000000 33.147579
Head 5.505812 4.541928 1.015234
